# xmcd
#
# Track frame offsets: 
#        150
#        17186
#        36014
#        56341
#        81182
#        100234
#        123425
#        143454
#        163764
#        184211
#        201615
#        218190
#        237299
#        257195
#        273933
#        294787
#        315200
#        337075
#
# Disc length: 4663 seconds
#
# Revision: 0
# Processed by: cddbd v1.5.2PL0 Copyright (c) Steve Scherf et al.
# Submitted via: ExactAudioCopy v1.0b4
#
DISCID=04123512
DTITLE=Various Artist - Mixed Emotions
DYEAR=2002
DGENRE=Easy Listening
TTITLE0=Rodel Naval - Muli
TTITLE1=Piolo Pascual - Ikaw Ang Buhay Ko
TTITLE2=Sarah Geronimo - Forever's Not Enough
TTITLE3=Carol Banawa - Iingatan Ka
TTITLE4=Gary Valenciano - Warrior Is A Child
TTITLE5=Lloyd Umali - Naliligaw, Nanliligaw
TTITLE6=Piolo Pascual - Kailangan Kita
TTITLE7=Ogie Alcasid and Regine Velasquez - Hanggang Ngayon
TTITLE8=Roselle Nava - Huwag Ka Nang Magbabalik
TTITLE9=Aiza Seguerra - Akala Mo
TTITLE10=New Edition - With You All The Way
TTITLE11=Dusty Springfield - Something In Your Eyes
TTITLE12=Dan Hill - I Fall All Over Again
TTITLE13=Mandy Moore - Someday We'll Know
TTITLE14=Michael W. Smith - Somewhere In The Night
TTITLE15=Shanice - Saving Forever For You
TTITLE16=Paul Anka - Hold Me Till The Morning Comes
TTITLE17=The Wonders - That Thing You Do
EXTD=
EXTT0=
EXTT1=
EXTT2=
EXTT3=
EXTT4=
EXTT5=
EXTT6=
EXTT7=
EXTT8=
EXTT9=
EXTT10=
EXTT11=
EXTT12=
EXTT13=
EXTT14=
EXTT15=
EXTT16=
EXTT17=
PLAYORDER=
